<?xml version="1.0" encoding="UTF-8"?>
<svg id="_圖層_1" data-name="圖層 1" xmlns="http://www.w3.org/2000/svg" viewBox="0 0 219.21 322.39">
  <path d="m4.21,136.06c0-7.93,6.41-14.33,14.33-14.33h129c7.93,0,14.33,6.41,14.33,14.33v14.33h22.93c18.99,0,34.4,15.41,34.4,34.4v45.73c0,13.62-8.02,25.93-20.43,31.44l-36.91,16.39v15.36c0,15.81-12.86,28.67-28.67,28.67H32.88c-15.81,0-28.67-12.86-28.67-28.67v-157.67Zm157.67,110.9l25.26-11.24c2.06-.94,3.4-2.96,3.4-5.24v-45.69c0-3.18-2.55-5.73-5.73-5.73h-22.93v67.9Zm-100.33-75.07c0-3.94-3.22-7.17-7.17-7.17s-7.17,3.22-7.17,7.17v100.33c0,3.94,3.22,7.17,7.17,7.17s7.17-3.23,7.17-7.17v-100.33Zm28.67,0c0-3.94-3.22-7.17-7.17-7.17s-7.17,3.22-7.17,7.17v100.33c0,3.94,3.22,7.17,7.17,7.17s7.17-3.23,7.17-7.17v-100.33Zm28.67,0c0-3.94-3.23-7.17-7.17-7.17s-7.17,3.22-7.17,7.17v100.33c0,3.94,3.23,7.17,7.17,7.17s7.17-3.23,7.17-7.17v-100.33Z"/>
  <path d="m0,78.89c0,20.63,16.74,37.37,37.37,37.37h95.5c18.35,0,33.22-14.87,33.22-33.22,0-16.06-11.42-29.48-26.57-32.54,1.06-2.78,1.66-5.81,1.66-8.98,0-13.75-11.16-24.91-24.91-24.91-5.11,0-9.89,1.56-13.83,4.2C95.24,8.36,81.82,0,66.43,0,43.49,0,24.91,18.58,24.91,41.52c0,.7.03,1.4.05,2.1C10.43,48.74,0,62.59,0,78.89Z"/>
</svg>