<?xml version="1.0" encoding="UTF-8"?>
<svg id="_圖層_1" data-name="圖層 1" xmlns="http://www.w3.org/2000/svg" viewBox="0 0 594.11 573.58">
  <defs>
    <style>
      .cls-1 {
        fill: none;
        stroke: #c59b6d;
        stroke-width: 9.43px;
      }

      .cls-1, .cls-2 {
        stroke-miterlimit: 10;
      }

      .cls-3 {
        fill: #c59b6d;
      }

      .cls-2 {
        stroke: #fff;
        stroke-width: .56px;
      }
    </style>
  </defs>
  <circle class="cls-2" cx="296.4" cy="219.84" r="219.57"/>
  <circle class="cls-1" cx="296.4" cy="219.84" r="208.59"/>
  <g>
    <path class="cls-3" d="m269.89,140.47c6.67,2.93,13.33,5.85,20,8.78-7.44,3.01-14.89,6.02-22.33,9.02-4.12,1.26-8.23,2.53-12.35,3.79-5.72-2.98-11.44-5.95-17.17-8.93,5.73-4.53,11.45-9.06,17.18-13.59,4.89.31,9.78.61,14.67.92Z"/>
    <path class="cls-3" d="m320.69,140.15c-6.83,2.53-13.65,5.07-20.48,7.6,7.26,3.44,14.51,6.87,21.77,10.31,4.04,1.5,8.07,3,12.11,4.51,5.89-2.64,11.77-5.28,17.66-7.91-5.45-4.86-10.91-9.71-16.36-14.57-4.9.02-9.8.04-14.69.07Z"/>
    <path class="cls-3" d="m321.61,177.04c-3.13-.97-7.2-2.61-11.46-5.46-6.86-4.59-10.93-10.13-13.1-13.64-4.02,3.2-9.9,8.01-16.91,14.19-4.81,4.24-6.01,5.47-7.09,7.09-2.06,3.08-6.04,11.02-.98,27.03,7.24,9.18,14.48,18.35,21.71,27.53,6.89-7.88,13.79-15.75,20.68-23.63,2.38-11.04,4.76-22.08,7.15-33.11Z"/>
    <path class="cls-3" d="m322.7,297.63c-4.83-2.09-10.76-5.2-16.91-9.82-4.45-3.34-8.06-6.75-10.91-9.82-1.91,1.54-4.8,3.95-8.18,7.09-5.4,5.02-5.15,5.24-7.64,7.09-6.25,4.65-13.64,7.09-13.64,7.09h0s3.54,11.13,7.64,21.83c1.06,2.77,2.71,6.94,4.91,12,5.09,5.46,10.19,10.91,15.28,16.37,5.46-6.18,10.91-12.37,16.37-18.55,4.37-11.09,8.73-22.19,13.1-33.28Z"/>
    <path class="cls-3" d="m297.27,246.34c2.26-1,4.9-2.4,7.64-4.37,4.64-3.33,7.79-7.01,9.82-9.82,6.76,4.08,12.51,7.14,16.71,9.28,2.88,1.46,13.05,6.56,14.73,4.37.1-.13.15-.27.2-.26.47.1-2.08,13.51-5.11,28.64-.5,2.47-1.62,6.36-4.37,10.37-4.04,5.9-9.3,8.69-11.8,9.82-4.33-3.04-9.76-7.6-14.73-14.19-9.97-13.2-12.39-26.93-13.1-33.83Z"/>
    <path class="cls-3" d="m294.02,246.34c-2.26-1-4.9-2.4-7.64-4.37-4.64-3.33-7.79-7.01-9.82-9.82-6.76,4.08-12.51,7.14-16.71,9.28-2.88,1.46-13.05,6.56-14.73,4.37-.1-.13-.14-.27-.2-.26-.49.1,1.49,12.18,3.58,24.27,1.26,4.6,4.11,12.3,10.91,19.1,2.31,2.31,4.65,4.09,6.78,5.46,4.33-3.04,9.76-7.6,14.73-14.19,9.97-13.2,12.39-26.93,13.1-33.83Z"/>
    <path class="cls-3" d="m280.14,226.15c-3.56,1.99-14.04,7.24-27.68,5.31-9.16-1.29-15.74-5.26-19.13-7.66.11-5.7,1.19-26.91,17.67-44.5,10.26-10.95,21.9-15.59,28.05-17.54-13.65,10.19-20.11,26.61-16.4,41.44,3.49,13.96,14.65,21.21,17.49,22.94Z"/>
    <path class="cls-3" d="m310.27,226.15c3.56,1.99,14.04,7.24,27.68,5.31,9.16-1.29,15.74-5.26,19.13-7.66-.11-5.7-1.19-26.91-17.67-44.5-10.26-10.95-21.9-15.59-28.05-17.54,13.65,10.19,20.11,26.61,16.4,41.44-3.49,13.96-14.65,21.21-17.49,22.94Z"/>
  </g>
  <path class="cls-3" d="m295.03,41.39c78.64,0,142.9,61.55,147.25,139.11.16-2.77.24-5.57.24-8.38,0-81.46-66.03-147.49-147.49-147.49s-147.49,66.03-147.49,147.49c0,2.81.09,5.61.24,8.38,4.35-77.56,68.6-139.11,147.25-139.11Z"/>
  <path class="cls-3" d="m295.03,393.13c78.64,0,142.9-61.55,147.25-139.11.16,2.77.24,5.57.24,8.38,0,81.46-66.03,147.49-147.49,147.49-81.46,0-147.49-66.03-147.49-147.49,0-2.81.09-5.61.24-8.38,4.35,77.56,68.6,139.11,147.25,139.11Z"/>
  <polygon class="cls-3" points="156.57 186.77 164.68 203.19 182.8 205.83 169.68 218.61 172.78 236.65 156.57 228.13 140.37 236.65 143.46 218.61 130.35 205.83 148.47 203.19 156.57 186.77"/>
  <polygon class="cls-3" points="447.23 186.77 455.34 203.19 473.46 205.83 460.34 218.61 463.44 236.65 447.23 228.13 431.03 236.65 434.12 218.61 421.01 205.83 439.13 203.19 447.23 186.77"/>
  <polygon class="cls-3" points="208.97 105.28 228.41 132.91 233.53 128.81 214.09 101.19 208.97 105.28"/>
  <polygon class="cls-3" points="223.29 95.05 237.62 125.74 252.97 118.58 249.9 111.42 241.71 115.51 229.43 90.96 223.29 95.05"/>
  <polygon class="cls-3" points="247.85 83.8 257.23 117.05 273.43 112.44 272.41 105.28 262.16 108.35 255.01 81.75 247.85 83.8"/>
  <path class="cls-3" d="m267.29,77.66s8.62,17.09,9.43,19.29,1.83,13.45,1.83,14.48,5.87,0,6.51,0-2.42-12.28-2.42-14.32,4-15.35,4.56-19.44h-6.4s-1.22,9.21-1.22,11.25-2.81-4.09-4.99-11.25h-7.29Z"/>
  <path class="cls-3" d="m339.93,82.77l-11.6,31.44s14.58,6,15.14,6.21,2.61-4.91,2.61-5.93-8.87-3.96-8.87-3.96l2-6.21,9.94,3.01,2.09-5.73s-8.22-3.48-9.25-4.5,1.68-6.14,1.68-6.14c0,0,7.64,3.52,9.12,3.81s2.5-5.85,2.5-5.85l-15.35-6.14Z"/>
  <path class="cls-3" d="m366.77,92.97l-16.9,28.94s13.31,8.45,13.82,8.75,3.42-4.38,3.6-5.39-8.05-5.45-8.05-5.45l3.05-5.77,9.27,4.7,3.05-5.28s-7.49-4.86-8.32-6.05,2.72-5.75,2.72-5.75c0,0,6.91,4.8,8.32,5.34s3.48-5.33,3.48-5.33l-14.04-8.72Z"/>
  <path class="cls-3" d="m391.4,111.71l-21.8,23.24,5.12,4.09,8.19-10.23s7.16,3.07,2.05,8.19-7.16,7.16-7.16,7.16l5.12,4.09s8.8-7.77,8.49-9-.31.82,1.74-6.35c0,0,5.12,3.07,9.21-5.12s-7.16-14.32-7.16-14.32l-3.78-1.76Z"/>
  <path d="m392.11,119.61l-4.09,4.09s2.05,6.14,6.14,4.09,1.02-6.14-2.05-8.19Z"/>
  <path class="cls-3" d="m309.79,76.76s-4.85,31.95-6.51,33.15,10,1.6,10,1.6c0,0,4.89,1.51,8.66-3.75s1.6-10-.43-11.06,2.26-.37,4.37-4.43c2.11-4.06,1.37-8.57-3.89-12.34,0,0-6.64-2.77-12.19-3.17Z"/>
  <path d="m313.46,85.12l.3,5.16s5.26,1.84,6.32-2.22-3.46-4.05-6.62-2.94Z"/>
  <path d="m312.31,96.07c0,1.02-1.02,7.16-1.02,8.19s3.96,2.3,5.56.64,2.62-4.73-1.47-7.8l-3.07-1.02Z"/>
  <path class="cls-3" d="m187.13,124.24s23.08,22.62,23.08,24.67,7.14-7.18,7.14-7.18c0,0,4.08-3.08,2.02-9.21s-7.18-7.14-9.22-6.12,1.02-2.05-1.04-6.14-6.15-6.12-12.29-4.06c0,0-6.13,3.77-9.7,8.04Z"/>
  <path d="m196.06,126.15l4.36,2.78s4.57-3.2,1.9-6.43-5.31.43-6.26,3.65Z"/>
  <path d="m204.27,133.49c.83.6,5.21,5.02,6.04,5.62s4.19-1.87,3.77-4.14-2.31-4.89-7.19-3.37l-2.62,1.89Z"/>
  <g>
    <path class="cls-3" d="m40.67,342.28c-6.87,4-15.09,6.47-22.97,4.65-7.88-1.82-13.37-7.56-17.7-14.12,6.86-3.95,14.25-6.88,22.29-5,8.04,1.88,13.65,7.98,18.38,14.47Z"/>
    <path class="cls-3" d="m60.71,375.58c-5.35,6.45-11.58,12.1-20.17,13.27-8.59,1.16-16.41-2.57-23.27-7.48,5.27-6.52,11.82-12.24,20.36-13.38,8.54-1.15,16.22,2.89,23.08,7.6Z"/>
    <path class="cls-3" d="m79.85,405.58c-4.62,7.84-11.36,14.38-20.48,16.33-9.12,1.96-17.96-1.24-25.87-5.77,5.07-7.45,11.37-13.77,20.47-15.78,9.11-2.02,17.78,1.02,25.88,5.22Z"/>
    <path class="cls-3" d="m104.11,433.72c-2.5,9.01-6.32,16.93-15.21,21.15-8.89,4.21-19.04,2.58-28.13-.55,3.37-8.94,8.45-17.96,17.33-22.13,8.88-4.18,17.23-1.22,26.01,1.54Z"/>
    <path class="cls-3" d="m131.92,457.66c-1.8,11.17-7.18,22.48-16.31,29.36-9.13,6.88-20.04,7.72-31.07,6.62,1.9-10.89,5.26-21.21,14.49-28.16,9.23-6.95,21.54-7.92,32.89-7.82Z"/>
    <path class="cls-3" d="m166.12,480.61c1.1,12.98-5.67,27.55-14.71,36.35-9.04,8.81-20.11,11.02-32.19,11.34.77-12.18,2.99-23.94,12.18-32.8,9.18-8.87,22.54-11.97,34.73-14.89Z"/>
    <path class="cls-3" d="m207.27,499.09c5.82,11.2,6.14,24.45.23,35.77-5.92,11.32-16.94,18.1-28.71,22.38-3.74-12.02-5.47-24.66.37-36.27,5.84-11.6,16.68-16.97,28.11-21.88Z"/>
    <path class="cls-3" d="m252.51,506.97c9.95,11.8,6.83,30.26-.15,42.57-6.99,12.31-17.75,19.44-30.74,24.03-4.14-12.74-6.64-26.44.04-38.74,6.68-12.3,19.79-19.84,30.84-27.86Z"/>
  </g>
  <g>
    <path class="cls-3" d="m40.44,342.33c7.77.51,15.86.07,22.1-5.03,6.24-5.1,8.37-12.8,9.26-20.51-7.75-.6-15.67.36-21.85,5.33-6.18,4.97-9.09,12.45-9.51,20.21Z"/>
    <path class="cls-3" d="m60.88,375.49c8.55-.75,17.16-2.98,23-9.56,5.84-6.58,6.84-15.01,6.45-23.47-8.52.82-16.87,3.18-22.71,9.73-5.84,6.55-7.32,14.78-6.74,23.3Z"/>
    <path class="cls-3" d="m80.42,405.15c8.96-1.1,18.16-.39,24.69-7.69,6.53-7.3,9.54-17.95,11.74-27.36-9.07-.49-17.67-3.36-25.91,3.02-8.24,6.38-10.88,21.53-10.51,32.03Z"/>
    <path class="cls-3" d="m104.8,433.17c9.25-.86,17.98-2.66,24.01-10.38,6.03-7.72,6.61-17.83,5.61-27.31-9.38.95-18.89,3.67-24.86,11.33-5.96,7.66-6.2,17.15-4.77,26.36Z"/>
    <path class="cls-3" d="m133.1,456.44c10.92-2.82,22.27-8.59,28.5-18.15,6.23-9.55,5.99-20.38,4.07-31.18-10.52,2.53-20.49,6.69-26.59,16.12-6.09,9.42-7.47,22.17-5.99,33.2Z"/>
    <path class="cls-3" d="m167.44,478.54c11.71-4.86,23.16-16.81,27.95-28.28,4.79-11.47,2.45-22.6-1.7-33.75-10.84,4.99-20.67,10.93-25.42,22.61-4.75,11.68-3.54,27.11-.83,39.42Z"/>
    <path class="cls-3" d="m208,497.01c10.98-5.5,19.57-15.12,21.79-27.43,2.22-12.31-2.62-24.05-9.34-34.24-10.04,6.83-19.45,16.23-21.75,28.34-2.29,12.11,2.64,23.61,9.3,33.33Z"/>
    <path class="cls-3" d="m253.02,504.23c11.04-7.69,18.54-17.74,19.25-31.52.71-13.78-5.13-25.91-13.63-36.4-10.03,8.62-19.05,19.95-20.09,33.38-1.05,13.42,6.1,24.79,14.47,34.54Z"/>
  </g>
  <path class="cls-3" d="m30.7,302.55c22.12,88.38,76.48,149.74,162.89,179.33,26.46,9.38,53.96,15.68,81.73,20.26l-2.43,13.2c-123.83-24.53-214.96-83.02-242.19-212.79h0Z"/>
  <g>
    <path class="cls-3" d="m553.44,342.28c6.87,4,15.09,6.47,22.97,4.65,7.88-1.82,13.37-7.56,17.7-14.12-6.86-3.95-14.25-6.88-22.29-5-8.04,1.88-13.65,7.98-18.38,14.47Z"/>
    <path class="cls-3" d="m533.4,375.58c5.35,6.45,11.58,12.1,20.17,13.27,8.59,1.16,16.41-2.57,23.27-7.48-5.27-6.52-11.82-12.24-20.36-13.38-8.54-1.15-16.22,2.89-23.08,7.6Z"/>
    <path class="cls-3" d="m514.25,405.58c4.62,7.84,11.36,14.38,20.48,16.33,9.12,1.96,17.96-1.24,25.87-5.77-5.07-7.45-11.37-13.77-20.47-15.78-9.11-2.02-17.78,1.02-25.88,5.22Z"/>
    <path class="cls-3" d="m490,433.72c2.5,9.01,6.32,16.93,15.21,21.15,8.89,4.21,19.04,2.58,28.13-.55-3.37-8.94-8.45-17.96-17.33-22.13-8.88-4.18-17.23-1.22-26.01,1.54Z"/>
    <path class="cls-3" d="m462.19,457.66c1.8,11.17,7.18,22.48,16.31,29.36,9.13,6.88,20.04,7.72,31.07,6.62-1.9-10.89-5.26-21.21-14.49-28.16-9.23-6.95-21.54-7.92-32.89-7.82Z"/>
    <path class="cls-3" d="m427.99,480.61c-1.1,12.98,5.67,27.55,14.71,36.35,9.04,8.81,20.11,11.02,32.19,11.34-.77-12.18-2.99-23.94-12.18-32.8-9.18-8.87-22.54-11.97-34.73-14.89Z"/>
    <path class="cls-3" d="m386.83,499.09c-5.82,11.2-6.14,24.45-.23,35.77,5.92,11.32,16.94,18.1,28.71,22.38,3.74-12.02,5.47-24.66-.37-36.27-5.84-11.6-16.68-16.97-28.11-21.88Z"/>
    <path class="cls-3" d="m341.6,506.97c-9.95,11.8-6.83,30.26.15,42.57,6.99,12.31,17.75,19.44,30.74,24.03,4.14-12.74,6.64-26.44-.04-38.74-6.68-12.3-19.79-19.84-30.84-27.86Z"/>
  </g>
  <g>
    <path class="cls-3" d="m553.66,342.33c-7.77.51-15.86.07-22.1-5.03-6.24-5.1-8.37-12.8-9.26-20.51,7.75-.6,15.67.36,21.85,5.33,6.18,4.97,9.09,12.45,9.51,20.21Z"/>
    <path class="cls-3" d="m533.23,375.49c-8.55-.75-17.16-2.98-23-9.56-5.84-6.58-6.84-15.01-6.45-23.47,8.52.82,16.87,3.18,22.71,9.73,5.84,6.55,7.32,14.78,6.74,23.3Z"/>
    <path class="cls-3" d="m513.68,405.15c-8.96-1.1-18.16-.39-24.69-7.69-6.53-7.3-9.54-17.95-11.74-27.36,9.07-.49,17.67-3.36,25.91,3.02,8.24,6.38,10.88,21.53,10.51,32.03Z"/>
    <path class="cls-3" d="m489.31,433.17c-9.25-.86-17.98-2.66-24.01-10.38-6.03-7.72-6.61-17.83-5.61-27.31,9.38.95,18.89,3.67,24.86,11.33,5.96,7.66,6.2,17.15,4.77,26.36Z"/>
    <path class="cls-3" d="m461.01,456.44c-10.92-2.82-22.27-8.59-28.5-18.15-6.23-9.55-5.99-20.38-4.07-31.18,10.52,2.53,20.49,6.69,26.59,16.12,6.09,9.42,7.47,22.17,5.99,33.2Z"/>
    <path class="cls-3" d="m426.66,478.54c-11.71-4.86-23.16-16.81-27.95-28.28-4.79-11.47-2.45-22.6,1.7-33.75,10.84,4.99,20.67,10.93,25.42,22.61,4.75,11.68,3.54,27.11.83,39.42Z"/>
    <path class="cls-3" d="m386.11,497.01c-10.98-5.5-19.57-15.12-21.79-27.43-2.22-12.31,2.62-24.05,9.34-34.24,10.04,6.83,19.45,16.23,21.75,28.34,2.29,12.11-2.64,23.61-9.3,33.33Z"/>
    <path class="cls-3" d="m341.08,504.23c-11.04-7.69-18.54-17.74-19.25-31.52-.71-13.78,5.13-25.91,13.63-36.4,10.03,8.62,19.05,19.95,20.09,33.38,1.05,13.42-6.1,24.79-14.47,34.54Z"/>
  </g>
  <path class="cls-3" d="m563.4,302.55c-27.25,129.84-118.43,188.26-242.19,212.79,0,0-2.43-13.2-2.43-13.2,27.77-4.58,55.28-10.88,81.73-20.26,86.41-29.58,140.79-91.01,162.89-179.33h0Z"/>
</svg>